<?xml version="1.0" encoding="UTF-8"?>
<!DOCTYPE svg PUBLIC "-//W3C//DTD SVG 1.1//EN" "http://www.w3.org/Graphics/SVG/1.1/DTD/svg11.dtd">
<!-- Creator: CorelDRAW X7 -->
<svg xmlns="http://www.w3.org/2000/svg" xml:space="preserve" width="3000px" height="3000px" version="1.1" style="shape-rendering:geometricPrecision; text-rendering:geometricPrecision; image-rendering:optimizeQuality; fill-rule:evenodd; clip-rule:evenodd"
viewBox="0 0 3000 3000"
 xmlns:xlink="http://www.w3.org/1999/xlink">
 <defs>
  <style type="text/css">
   <![CDATA[
    .fil7 {fill:none}
    .fil5 {fill:black}
    .fil0 {fill:black}
    .fil4 {fill:#00ABEB}
    .fil2 {fill:#51A54A}
    .fil1 {fill:#FAEB1F}
    .fil3 {fill:#FEFEFE}
    .fil6 {fill:black;fill-rule:nonzero}
   ]]>
  </style>
 </defs>
 <g id="Layer_x0020_1">
  <metadata id="CorelCorpID_0Corel-Layer"/>
  <g id="_2169489363440">
   <g>
    <path class="fil0" d="M622 311l1756 0 0 1104c-4,113 -17,221 -53,305 -74,174 -212,304 -334,401 -75,60 -354,245 -491,245 -137,0 -416,-185 -491,-245 -122,-97 -260,-227 -334,-401 -36,-84 -49,-192 -53,-305l0 -1104z"/>
    <path class="fil1" d="M1023 895l477 0 477 0c54,0 53,-2 82,29l295 309 0 -898 -1708 0 0 898 295 -309c29,-31 28,-29 82,-29z"/>
    <path class="fil2" d="M790 1193l268 0 0 55 116 0 0 -55 268 0 0 55 116 0 0 -55 268 0 0 54 116 0 0 -55 268 0 0 55 123 0 -292 -306c-4,-5 -15,-17 -20,-19 -8,-4 -36,-3 -44,-3l-954 0c-8,0 -36,-1 -44,3 -5,2 -16,14 -20,19l-292 306 123 0 0 -54z"/>
    <polygon class="fil3" points="834,1236 834,1291 646,1291 646,1312 855,1312 855,1257 993,1257 993,1312 1239,1312 1239,1257 1377,1257 1377,1312 1623,1312 1623,1257 1761,1257 1761,1312 2007,1311 2007,1256 2145,1256 2145,1311 2354,1311 2354,1290 2166,1290 2166,1236 1986,1236 1986,1290 1782,1291 1782,1236 1602,1236 1602,1291 1398,1291 1398,1237 1218,1237 1218,1291 1014,1291 1014,1236 "/>
    <polygon class="fil3" points="802,1204 802,1259 646,1259 646,1280 822,1280 822,1225 1025,1225 1025,1280 1207,1280 1207,1225 1409,1225 1409,1280 1591,1280 1591,1225 1794,1225 1794,1279 1975,1279 1975,1224 2178,1224 2178,1279 2354,1279 2354,1258 2198,1258 2198,1204 1954,1204 1954,1258 1814,1259 1814,1204 1570,1204 1570,1259 1430,1259 1430,1205 1186,1205 1186,1259 1046,1259 1046,1204 "/>
    <path class="fil3" d="M2354 1371l-1708 0 0 44c1,14 1,29 2,44 2,0 3,-1 5,-1 14,-5 29,-8 41,-8 13,0 28,3 42,8 15,5 31,12 45,20 13,7 27,14 40,18 13,4 24,7 35,7 10,0 21,-3 34,-7 13,-4 27,-11 40,-18 14,-8 30,-15 45,-20 15,-5 29,-8 42,-8 12,0 27,3 41,8 16,5 31,12 45,20 13,7 27,14 41,18 12,4 24,7 34,7 10,0 22,-3 34,-7 14,-4 28,-11 40,-18l0 0c14,-8 30,-15 45,-20 15,-5 29,-8 42,-8 13,0 27,3 42,8 15,5 30,12 45,20l0 0c12,7 26,14 40,18 12,4 24,7 34,7 10,0 22,-3 34,-7 14,-4 28,-11 40,-18l0 0c15,-8 30,-15 45,-20 15,-5 29,-8 42,-8 13,0 27,3 42,8 15,5 31,12 45,20l0 0c12,7 26,14 40,18 12,4 24,7 34,7 10,0 22,-3 34,-7 14,-4 28,-11 41,-18 14,-8 29,-15 45,-20 14,-5 29,-8 41,-8 13,0 27,3 42,8 15,5 31,12 45,20 13,7 27,14 40,18 13,4 24,7 34,7 11,0 22,-3 35,-7 13,-4 27,-11 40,-18 14,-8 30,-15 45,-20 14,-5 29,-8 42,-8 12,0 27,3 41,8 2,0 3,1 5,1 1,-15 1,-30 2,-44l0 -44z"/>
    <path class="fil3" d="M1051 1588c-12,-4 -24,-6 -34,-6 -10,0 -22,2 -35,6 -13,5 -27,11 -40,19 -14,8 -30,15 -45,20 -14,5 -29,8 -41,8 -13,0 -28,-3 -42,-8 -15,-5 -31,-12 -45,-20 -13,-8 -27,-14 -40,-19 -13,-4 -25,-6 -35,-6 -9,0 -20,2 -31,6 5,26 11,53 19,78 4,-1 8,-1 12,-1 13,0 28,3 42,8 15,5 31,12 45,20 13,7 27,14 40,18 13,4 24,7 35,7 10,0 21,-3 34,-7 13,-4 27,-11 40,-18 14,-8 30,-15 45,-20 15,-5 29,-8 42,-8 12,0 27,3 41,8 16,5 31,12 45,20 13,7 27,14 41,18 12,4 24,7 34,7 10,0 22,-3 34,-7 14,-4 28,-11 40,-18l0 0c14,-8 30,-15 45,-20 15,-5 29,-8 42,-8 13,0 27,3 42,8 15,5 30,12 45,20l0 0c12,7 26,14 40,18 12,4 24,7 34,7 10,0 22,-3 34,-7 14,-4 28,-11 40,-18l0 0c15,-8 30,-15 45,-20 15,-5 29,-8 42,-8 13,0 27,3 42,8 15,5 31,12 45,20l0 0c12,7 26,14 40,18 12,4 24,7 34,7 10,0 22,-3 34,-7 14,-4 28,-11 41,-18 14,-8 29,-15 45,-20 14,-5 29,-8 41,-8 13,0 27,3 42,8 15,5 31,12 45,20 13,7 27,14 40,18 13,4 24,7 34,7 11,0 22,-3 35,-7 13,-4 27,-11 40,-18 14,-8 30,-15 45,-20 14,-5 29,-8 42,-8 4,0 8,0 12,1 8,-25 14,-52 19,-78 -11,-4 -22,-6 -31,-6 -10,0 -22,2 -35,6 -13,5 -27,11 -40,19 -14,8 -30,15 -45,20 -14,5 -29,8 -42,8 -12,0 -27,-3 -41,-8 -15,-5 -31,-12 -45,-20 -13,-8 -27,-14 -40,-19 -13,-4 -25,-6 -35,-6 -10,0 -22,2 -34,6 -13,5 -27,11 -40,19 -14,8 -30,15 -45,20 -15,5 -29,8 -42,8 -12,0 -27,-3 -42,-8 -15,-5 -30,-12 -45,-20l0 0c-12,-8 -26,-14 -40,-19 -12,-4 -24,-6 -34,-6 -10,0 -22,2 -34,6 -14,5 -28,11 -40,19l0 0c-14,8 -30,15 -45,20 -15,5 -29,8 -42,8 -13,0 -27,-3 -42,-8 -15,-5 -31,-12 -45,-20l0 0c-12,-8 -26,-14 -40,-19 -12,-4 -24,-6 -34,-6 -10,0 -22,2 -34,6 -14,5 -28,11 -40,19l0 0c-15,8 -30,15 -45,20 -15,5 -30,8 -42,8 -13,0 -27,-3 -42,-8 -15,-5 -31,-12 -45,-20 -13,-8 -27,-14 -40,-19z"/>
    <path class="fil3" d="M1091 1822c-13,-8 -27,-14 -40,-18 -12,-4 -24,-7 -34,-7 -10,0 -22,3 -35,7 -13,4 -27,10 -40,18 -14,8 -30,15 -45,20 -14,5 -29,8 -41,8 -13,0 -28,-3 -42,-8 -15,-5 -31,-12 -45,-20 -6,-4 -12,-7 -18,-9 27,42 57,81 90,118 5,1 10,2 15,2 10,0 21,-3 34,-7 13,-4 27,-11 40,-18 14,-8 30,-15 45,-20 15,-5 29,-8 42,-8 12,0 27,3 41,8 16,5 31,12 45,20 13,7 27,14 41,18 12,4 24,7 34,7 10,0 22,-3 34,-7 14,-4 28,-11 40,-18l0 0c14,-8 30,-15 45,-20 15,-5 29,-8 42,-8 13,0 27,3 42,8 15,5 30,12 45,20l0 0c12,7 26,14 40,18 12,4 24,7 34,7 10,0 22,-3 34,-7 14,-4 28,-11 40,-18l0 0c15,-8 30,-15 45,-20 15,-5 29,-8 42,-8 13,0 27,3 42,8 15,5 31,12 45,20l0 0c12,7 26,14 40,18 12,4 24,7 34,7 10,0 22,-3 34,-7 14,-4 28,-11 41,-18 14,-8 29,-15 45,-20 14,-5 29,-8 41,-8 13,0 27,3 42,8 15,5 31,12 45,20 13,7 27,14 40,18 13,4 24,7 34,7 5,0 10,-1 15,-2 33,-37 63,-76 90,-118 -6,2 -12,5 -18,9 -14,8 -30,15 -45,20 -14,5 -29,8 -42,8 -12,0 -27,-3 -41,-8 -15,-5 -31,-12 -45,-20 -13,-8 -27,-14 -40,-18 -13,-4 -25,-7 -35,-7 -10,0 -22,3 -34,7 -13,4 -27,10 -40,18 -14,8 -30,15 -45,20 -15,5 -29,8 -42,8 -12,0 -27,-3 -42,-8 -15,-5 -30,-12 -45,-20l0 0c-12,-8 -26,-14 -40,-18 -12,-4 -24,-7 -34,-7 -10,0 -22,3 -34,7 -14,4 -28,10 -40,18l0 0c-14,8 -30,15 -45,20 -15,5 -29,8 -42,8 -13,0 -27,-3 -42,-8 -15,-5 -31,-12 -45,-20l0 0c-12,-8 -26,-14 -40,-18 -12,-4 -24,-7 -34,-7 -10,0 -22,3 -34,7 -14,4 -28,10 -40,18l0 0c-15,8 -30,15 -45,20 -15,5 -30,8 -42,8 -13,0 -27,-3 -42,-8 -15,-5 -31,-12 -45,-20z"/>
    <path class="fil3" d="M1339 2012c-10,0 -22,3 -34,7 -14,4 -28,10 -40,18l0 0c-15,8 -30,15 -45,20 -15,5 -30,8 -42,8 -13,0 -27,-3 -42,-8 -15,-5 -31,-12 -45,-20 -13,-8 -27,-14 -40,-18 -12,-4 -24,-7 -34,-7 -10,0 -22,3 -35,7 -12,4 -25,9 -37,16 23,21 47,41 71,60 0,0 1,0 1,0 12,0 27,3 41,8 16,5 31,12 45,20 13,7 27,14 41,18 12,4 24,7 34,7 10,0 22,-3 34,-7 14,-4 28,-11 40,-18l0 0c14,-8 30,-15 45,-20 15,-5 29,-8 42,-8 13,0 27,3 42,8 15,5 30,12 45,20l0 0c12,7 26,14 40,18 12,4 24,7 34,7 10,0 22,-3 34,-7 14,-4 28,-11 40,-18l0 0c15,-8 30,-15 45,-20 15,-5 29,-8 42,-8 13,0 27,3 42,8 15,5 31,12 45,20l0 0c12,7 26,14 40,18 12,4 24,7 34,7 10,0 22,-3 34,-7 14,-4 28,-11 41,-18 14,-8 29,-15 45,-20 14,-5 29,-8 41,-8 0,0 1,0 1,0 24,-19 48,-39 71,-60 -12,-7 -25,-12 -37,-16 -13,-4 -25,-7 -35,-7 -10,0 -22,3 -34,7 -13,4 -27,10 -40,18 -14,8 -30,15 -45,20 -15,5 -29,8 -42,8 -12,0 -27,-3 -42,-8 -15,-5 -30,-12 -45,-20l0 0c-12,-8 -26,-14 -40,-18 -12,-4 -24,-7 -34,-7 -10,0 -22,3 -34,7 -14,4 -28,10 -40,18l0 0c-14,8 -30,15 -45,20 -15,5 -29,8 -42,8 -13,0 -27,-3 -42,-8 -15,-5 -31,-12 -45,-20l0 0c-12,-8 -26,-14 -40,-18 -12,-4 -24,-7 -34,-7z"/>
    <path class="fil3" d="M1458 2272c-15,-5 -31,-12 -45,-20l0 0c-12,-7 -26,-14 -40,-18 -12,-4 -24,-7 -34,-7 -10,0 -22,3 -34,7 -14,4 -28,10 -40,18l0 0c-2,1 -3,1 -4,2 61,34 169,88 239,88 70,0 178,-54 239,-88 -1,-1 -2,-1 -4,-2l0 0c-12,-8 -26,-14 -40,-18 -12,-4 -24,-7 -34,-7 -10,0 -22,3 -34,7 -14,4 -28,11 -40,18l0 0c-14,8 -30,15 -45,20 -15,5 -29,8 -42,8 -13,0 -27,-3 -42,-8z"/>
    <path class="fil4" d="M1413 2144c-12,-7 -26,-13 -40,-18 -12,-4 -24,-6 -34,-6 -10,0 -22,2 -34,6 -14,5 -28,11 -40,18l0 0c-15,9 -30,16 -45,21 -15,4 -30,7 -42,7 -13,0 -27,-3 -42,-7 -15,-5 -31,-12 -45,-21 -9,-5 -18,-10 -28,-13 18,13 37,25 55,37 38,25 77,49 117,72 6,-3 12,-6 17,-9l0 0c14,-9 30,-16 45,-21 15,-5 29,-7 42,-7 13,0 27,2 42,7 15,5 30,12 45,21l0 0c12,7 26,13 40,18 12,4 24,6 34,6 10,0 22,-2 34,-6 14,-5 28,-11 40,-18l0 0c15,-9 30,-16 45,-21 15,-5 29,-7 42,-7 13,0 27,2 42,7 15,5 31,12 45,21l0 0c5,3 11,6 17,9 40,-23 79,-47 117,-72 18,-12 37,-24 55,-37 -10,3 -19,8 -28,13 -14,9 -30,16 -45,21 -15,4 -29,7 -42,7 -12,0 -27,-3 -42,-7 -15,-5 -30,-12 -45,-21l0 0c-12,-7 -26,-13 -40,-18 -12,-4 -24,-6 -34,-6 -10,0 -22,2 -34,6 -14,5 -28,11 -40,18l0 0c-14,9 -30,16 -45,21 -15,4 -29,7 -42,7 -13,0 -27,-3 -42,-7 -15,-5 -31,-12 -45,-21l0 0z"/>
    <path class="fil4" d="M1381 1995c15,5 30,12 45,21l0 0c12,7 26,13 40,18 12,4 24,6 34,6 10,0 22,-2 34,-6 14,-5 28,-11 40,-18l0 0c15,-9 30,-16 45,-21 15,-5 29,-7 42,-7 13,0 27,2 42,7 15,5 31,12 45,21l0 0c12,7 26,13 40,18 12,4 24,6 34,6 10,0 22,-2 34,-6 14,-5 28,-11 41,-18 14,-9 29,-16 45,-21 14,-5 29,-7 41,-7 13,0 27,2 42,7 15,5 31,12 45,21 1,0 3,1 4,2 21,-20 42,-40 61,-61 -10,-1 -21,-4 -32,-7 -15,-5 -31,-12 -45,-21 -13,-7 -27,-13 -40,-18 -13,-4 -25,-6 -35,-6 -10,0 -22,2 -34,6 -13,5 -27,11 -40,18 -14,9 -30,16 -45,21 -15,4 -29,7 -42,7 -12,0 -27,-3 -42,-7 -15,-5 -30,-12 -45,-21l0 0c-12,-7 -26,-13 -40,-18 -12,-4 -24,-6 -34,-6 -10,0 -22,2 -34,6 -14,5 -28,11 -40,18l0 0c-14,9 -30,16 -45,21 -15,4 -29,7 -42,7 -13,0 -27,-3 -42,-7 -15,-5 -31,-12 -45,-21l0 0c-12,-7 -26,-13 -40,-18 -12,-4 -24,-6 -34,-6 -10,0 -22,2 -34,6 -14,5 -28,11 -40,18l0 0c-15,9 -30,16 -45,21 -15,4 -30,7 -42,7 -13,0 -27,-3 -42,-7 -15,-5 -31,-12 -45,-21 -13,-7 -27,-13 -40,-18 -12,-4 -24,-6 -34,-6 -10,0 -22,2 -35,6 -13,5 -27,11 -40,18 -14,9 -30,16 -45,21 -11,3 -22,6 -32,7 19,21 40,41 61,61 1,-1 3,-2 4,-2 14,-9 30,-16 45,-21 15,-5 29,-7 42,-7 12,0 27,2 41,7 16,5 31,12 45,21 13,7 27,13 41,18 12,4 24,6 34,6 10,0 22,-2 34,-6 14,-5 28,-11 40,-18l0 0c14,-9 30,-16 45,-21 15,-5 29,-7 42,-7 13,0 27,2 42,7z"/>
    <path class="fil4" d="M1339 1773c13,0 27,2 42,7 15,5 30,12 45,21l0 -1c12,8 26,14 40,19 12,4 24,6 34,6 10,0 22,-2 34,-6 14,-5 28,-11 40,-19l0 1c15,-9 30,-16 45,-21 15,-5 29,-7 42,-7 13,0 27,2 42,7 15,5 31,12 45,20l0 1c12,7 26,13 40,18 12,4 24,6 34,6 10,0 22,-2 34,-6 14,-5 28,-11 41,-18 14,-9 29,-16 45,-21 14,-5 29,-7 41,-7 13,0 27,2 42,7 15,5 31,12 45,21 13,7 27,13 40,18 13,4 24,6 34,6 11,0 22,-2 35,-6 13,-5 27,-11 40,-18 14,-9 30,-16 45,-21 1,0 3,-1 5,-1 12,-22 23,-45 33,-68 3,-7 6,-14 8,-21 -1,0 -3,0 -4,0 -10,0 -22,2 -35,6 -13,4 -27,11 -40,18 -14,8 -30,16 -45,21 -14,4 -29,7 -42,7 -12,0 -27,-3 -41,-7 -15,-5 -31,-13 -45,-21 -13,-7 -27,-14 -40,-18 -13,-4 -25,-6 -35,-6 -10,0 -22,2 -34,6 -13,4 -27,11 -40,18 -14,8 -30,16 -45,21 -15,4 -29,7 -42,7 -12,0 -27,-3 -42,-7 -15,-5 -30,-13 -45,-21l0 0c-12,-7 -26,-14 -40,-18 -12,-4 -24,-6 -34,-6 -10,0 -22,2 -34,6 -14,4 -28,11 -40,18l0 0c-14,8 -30,16 -45,21 -15,4 -29,7 -42,7 -13,0 -27,-3 -42,-7 -15,-5 -31,-13 -45,-21l0 0c-12,-7 -26,-14 -40,-18 -12,-4 -24,-6 -34,-6 -10,0 -22,2 -34,6 -14,4 -28,11 -40,18l0 0c-15,8 -30,16 -45,21 -15,4 -30,7 -42,7 -13,0 -27,-3 -42,-7 -15,-5 -31,-13 -45,-21 -13,-7 -27,-14 -40,-18 -12,-4 -24,-6 -34,-6 -10,0 -22,2 -35,6 -13,4 -27,11 -40,18 -14,8 -30,16 -45,21 -14,4 -29,7 -41,7 -13,0 -28,-3 -42,-7 -15,-5 -31,-13 -45,-21 -13,-7 -27,-14 -40,-18 -13,-4 -25,-6 -35,-6 -1,0 -3,0 -4,0 2,7 5,14 8,21 10,23 21,46 33,68 2,0 4,1 5,1 15,5 31,12 45,21 13,7 27,13 40,18 13,4 24,6 35,6 10,0 21,-2 34,-6 13,-5 27,-11 40,-18 14,-9 30,-16 45,-21 15,-5 29,-7 42,-7 12,0 27,2 41,7 16,5 31,12 45,21 13,7 27,13 41,18 12,4 24,6 34,6 10,0 22,-2 34,-6 14,-5 28,-11 40,-18l0 -1c14,-8 30,-15 45,-20 15,-5 29,-7 42,-7z"/>
    <path class="fil4" d="M1381 1565c15,5 30,12 45,20l0 0c12,8 26,14 40,19 12,4 24,6 34,6 10,0 22,-2 34,-6 14,-5 28,-11 40,-19l0 0c15,-8 30,-15 45,-20 15,-5 29,-8 42,-8 13,0 27,3 42,8 15,5 31,12 45,20l0 0c12,8 26,14 40,19 12,4 24,6 34,6 10,0 22,-2 34,-6 14,-5 28,-11 41,-19 14,-8 29,-15 45,-20 14,-5 29,-8 41,-8 13,0 27,3 42,8 15,5 31,12 45,20 13,8 27,14 40,19 13,4 24,6 34,6 11,0 22,-2 35,-6 13,-5 27,-11 40,-19 14,-8 30,-15 45,-20 14,-5 29,-8 42,-8 10,0 23,3 35,6 4,-26 7,-52 9,-78 -3,-2 -7,-3 -10,-4 -12,-4 -24,-6 -34,-6 -10,0 -22,2 -35,6 -13,4 -27,11 -40,18 -14,8 -30,16 -45,21 -14,4 -29,7 -42,7 -12,0 -27,-3 -41,-7 -15,-5 -31,-13 -45,-21 -13,-7 -27,-14 -40,-18 -13,-4 -25,-6 -35,-6 -10,0 -22,2 -34,6 -13,4 -27,11 -40,18 -14,8 -30,16 -45,21 -15,4 -29,7 -42,7 -12,0 -27,-3 -42,-7 -15,-5 -30,-13 -45,-21l0 0c-12,-7 -26,-14 -40,-18 -12,-4 -24,-6 -34,-6 -10,0 -22,2 -34,6 -14,4 -28,11 -40,18l0 0c-14,8 -30,16 -45,21 -15,4 -29,7 -42,7 -13,0 -27,-3 -42,-7 -15,-5 -31,-13 -45,-21l0 0c-12,-7 -26,-14 -40,-18 -12,-4 -24,-6 -34,-6 -10,0 -22,2 -34,6 -14,4 -28,11 -40,18l0 0c-15,8 -30,16 -45,21 -15,4 -30,7 -42,7 -13,0 -27,-3 -42,-7 -15,-5 -31,-13 -45,-21 -13,-7 -27,-14 -40,-18 -12,-4 -24,-6 -34,-6 -10,0 -22,2 -35,6 -13,4 -27,11 -40,18 -14,8 -30,16 -45,21 -14,4 -29,7 -41,7 -13,0 -28,-3 -42,-7 -15,-5 -31,-13 -45,-21 -13,-7 -27,-14 -40,-18 -13,-4 -25,-6 -35,-6 -10,0 -22,2 -34,6 -3,1 -7,2 -10,4 2,26 5,52 9,78 12,-3 25,-6 35,-6 13,0 28,3 42,8 15,5 31,12 45,20 13,8 27,14 40,19 13,4 24,6 35,6 10,0 21,-2 34,-6 13,-5 27,-11 40,-19 14,-8 30,-15 45,-20 15,-5 29,-8 42,-8 12,0 27,3 41,8 16,5 31,12 45,20 13,8 27,14 41,19 12,4 24,6 34,6 10,0 22,-2 34,-6 14,-5 28,-11 40,-19l0 0c14,-8 30,-15 45,-20 15,-5 29,-8 42,-8 13,0 27,3 42,8z"/>
   </g>
   <g>
    <polygon class="fil5" points="647,2377 2353,2377 2353,2302 2900,2302 2701,2458 2900,2614 2503,2614 2503,2689 497,2689 497,2614 100,2614 299,2458 100,2302 647,2302 "/>
    <g>
     <polygon class="fil1" points="171,2589 497,2589 497,2382 590,2326 171,2326 339,2458 "/>
     <polygon class="fil1" points="554,2377 622,2377 622,2336 "/>
     <polygon class="fil1" points="2478,2402 522,2402 522,2589 522,2665 2478,2665 "/>
     <polygon class="fil1" points="2410,2326 2503,2382 2503,2589 2829,2589 2661,2458 2829,2326 "/>
     <polygon class="fil1" points="2446,2377 2378,2336 2378,2377 "/>
    </g>
    <g>
     <path class="fil6" d="M657 2528l0 75 -10 0c-1,-5 -2,-10 -3,-16 -6,12 -15,18 -25,18 -12,0 -21,-6 -27,-19 -7,-13 -10,-30 -10,-51 0,-22 3,-40 10,-54 7,-13 17,-20 29,-20 10,0 18,4 24,13 7,9 10,20 12,35l-20 4c-2,-17 -7,-25 -16,-25 -6,0 -10,4 -13,12 -3,8 -5,19 -5,34 0,15 2,26 5,33 3,8 8,12 14,12 4,0 7,-2 10,-6 3,-4 5,-10 5,-18l-18 0 0 -27 38 0 0 0z"/>
     <polygon id="_1" class="fil6" points="738,2490 695,2490 695,2518 729,2518 729,2545 695,2545 695,2576 738,2576 738,2603 673,2603 673,2463 738,2463 "/>
     <polygon id="_2" class="fil6" points="791,2603 769,2489 769,2603 751,2603 751,2463 784,2463 800,2547 816,2463 850,2463 850,2603 828,2603 828,2489 805,2603 "/>
     <path id="_3" class="fil6" d="M912 2463l29 140 -23 0 -6 -29 -29 0 -6 29 -18 0 29 -140 24 0zm-24 85l19 0 -9 -49 -10 49 0 0z"/>
     <polygon id="_4" class="fil6" points="1020,2463 1020,2603 999,2603 999,2545 971,2545 971,2603 950,2603 950,2463 971,2463 971,2518 999,2518 999,2463 "/>
     <path id="_5" class="fil6" d="M1094 2548l0 55 -22 0 0 -140 40 0c8,0 14,1 18,4 4,3 8,7 11,15 3,7 4,15 4,23 0,17 -5,29 -15,37l16 61 -23 0 -14 -55 -15 0 0 0zm0 -60l0 36 13 0c4,0 7,-1 9,-1 2,-1 4,-3 5,-7 2,-3 2,-6 2,-11 0,-3 0,-7 -2,-10 -1,-3 -3,-5 -5,-6 -1,0 -5,-1 -10,-1l-12 0 0 0z"/>
     <polygon id="_6" class="fil6" points="1183,2463 1183,2603 1162,2603 1162,2463 "/>
     <path id="_7" class="fil6" d="M1223 2551l0 52 -22 0 0 -140 36 0c8,0 14,1 18,4 4,3 8,7 11,14 4,7 5,15 5,25 0,7 -1,14 -2,20 -2,7 -5,12 -8,16 -3,3 -6,6 -9,7 -3,1 -8,2 -14,2l-15 0 0 0zm-1 -25l14 0c5,0 9,-2 11,-6 2,-4 3,-8 3,-13 0,-6 -1,-10 -3,-14 -3,-3 -6,-5 -11,-5l-14 0 0 38 0 0z"/>
     <path id="_8" class="fil6" d="M1322 2463l28 140 -22 0 -6 -29 -29 0 -6 29 -19 0 30 -140 24 0zm-24 85l19 0 -9 -49 -10 49 0 0z"/>
     <polygon id="_9" class="fil6" points="1430,2463 1430,2603 1409,2603 1409,2545 1381,2545 1381,2603 1360,2603 1360,2463 1381,2463 1381,2518 1409,2518 1409,2463 "/>
     <path id="_10" class="fil6" d="M1591 2463l-23 140 -20 0 -15 -93 -15 93 -21 0 -23 -140 22 0 12 86c0,0 1,1 1,4 0,1 0,3 1,4l15 -94 19 0 16 94c0,-1 0,-4 1,-8l13 -86 17 0 0 0z"/>
     <polygon id="_11" class="fil6" points="1622,2463 1622,2603 1601,2603 1601,2463 "/>
     <path id="_12" class="fil6" d="M1640 2463l43 0c7,0 13,1 16,4 4,3 7,7 10,13 2,5 4,11 4,19 0,16 -6,26 -17,31 7,3 11,7 15,13 3,7 4,14 4,22 0,10 -2,19 -7,27 -6,7 -14,11 -25,11l-43 0 0 -140 0 0zm22 25l0 30 16 0c5,0 9,-1 11,-5 1,-3 2,-7 2,-10 0,-4 -1,-7 -2,-9 -1,-3 -3,-5 -4,-5 -2,-1 -5,-1 -9,-1l-14 0 0 0zm0 56l0 33 16 0c5,0 9,-1 12,-4 2,-3 3,-7 3,-13 0,-4 -1,-8 -3,-11 -3,-4 -6,-5 -11,-5l-17 0 0 0z"/>
     <path id="_13" class="fil6" d="M1773 2463l29 140 -23 0 -6 -29 -29 0 -6 29 -18 0 29 -140 24 0zm-24 85l19 0 -9 -49 -10 49 0 0z"/>
     <path id="_14" class="fil6" d="M1916 2463l-23 140 -21 0 -15 -93 -14 93 -21 0 -23 -140 22 0 12 86c0,0 0,1 1,4 0,1 0,3 0,4l15 -94 20 0 15 94c0,-1 1,-4 1,-8l13 -86 18 0 0 0z"/>
     <path id="_15" class="fil6" d="M1966 2463l29 140 -23 0 -6 -29 -29 0 -6 29 -18 0 29 -140 24 0zm-24 85l19 0 -9 -49 -10 49 0 0z"/>
     <polygon id="_16" class="fil6" points="2078,2603 2056,2489 2056,2603 2038,2603 2038,2463 2071,2463 2087,2547 2104,2463 2137,2463 2137,2603 2116,2603 2116,2489 2093,2603 "/>
     <path id="_17" class="fil6" d="M2227 2463l0 87c0,14 -1,25 -4,32 -1,7 -5,12 -11,17 -6,4 -13,6 -22,6 -8,0 -15,-2 -20,-6 -5,-3 -9,-9 -12,-16 -2,-8 -4,-19 -4,-33l0 -87 23 0 0 87c0,8 1,13 2,17 0,4 2,6 4,9 3,2 6,3 10,3 3,0 7,-1 9,-3 3,-2 4,-5 5,-9 1,-3 2,-9 2,-17l0 -87 18 0 0 0z"/>
     <polygon id="_18" class="fil6" points="2264,2463 2264,2529 2293,2463 2313,2463 2291,2513 2318,2603 2295,2603 2277,2543 2264,2571 2264,2603 2243,2603 2243,2463 "/>
     <polygon id="_19" class="fil6" points="2388,2463 2388,2491 2365,2491 2365,2603 2344,2603 2344,2491 2321,2491 2321,2463 "/>
     <polygon id="_20" class="fil6" points="2418,2463 2418,2603 2397,2603 2397,2463 "/>
    </g>
   </g>
  </g>
  <polygon class="fil7" points="0,0 3000,0 3000,3000 0,3000 "/>
 </g>
</svg>
